PathFileType	4	(X/Y/Z)	Kaydara																																																																																																																									
DataRate	CameraRate	NumFrames	NumMarkers	Units	OrigDataRate	OrigDataStartFrame	OrigNumFrames																																																																																																																					
30	30	4	41	mm	30	33	128																																																																																																																					
Frame#	Time	EMLA_LFHD			EMLA_RFHD			EMLA_LBHD			EMLA_RBHD			EMLA_LFTShould			EMLA_RFTShould			EMLA_LRRShould			EMLA_RRRShould			EMLA_T10			EMLA_STRN			EMLA_TRUN			EMLA_LSHO			EMLA_LUPA			EMLA_LELB			EMLA_LFRM			EMLA_LWRA			EMLA_LWRB			EMLA_LFIN			EMLA_RSHO			EMLA_RUPA			EMLA_RELB			EMLA_RFRM			EMLA_RWRA			EMLA_RWRB			EMLA_RFIN			EMLA_LFWT			EMLA_RFWT			EMLA_LBWT			EMLA_RBWT			EMLA_LTHI			EMLA_LKNE			EMLA_LSHN			EMLA_LANK			EMLA_LHEE			EMLA_LTOE			EMLA_RTHI			EMLA_RKNE			EMLA_RSHN			EMLA_RANK			EMLA_RHEE			EMLA_RTOE		
		X1	Y1	Z1	X2	Y2	Z2	X3	Y3	Z3	X4	Y4	Z4	X5	Y5	Z5	X6	Y6	Z6	X7	Y7	Z7	X8	Y8	Z8	X9	Y9	Z9	X10	Y10	Z10	X11	Y11	Z11	X12	Y12	Z12	X13	Y13	Z13	X14	Y14	Z14	X15	Y15	Z15	X16	Y16	Z16	X17	Y17	Z17	X18	Y18	Z18	X19	Y19	Z19	X20	Y20	Z20	X21	Y21	Z21	X22	Y22	Z22	X23	Y23	Z23	X24	Y24	Z24	X25	Y25	Z25	X26	Y26	Z26	X27	Y27	Z27	X28	Y28	Z28	X29	Y29	Z29	X30	Y30	Z30	X31	Y31	Z31	X32	Y32	Z32	X33	Y33	Z33	X34	Y34	Z34	X35	Y35	Z35	X36	Y36	Z36	X37	Y37	Z37	X38	Y38	Z38	X39	Y39	Z39	X40	Y40	Z40	X41	Y41	Z41
																																																																																																																												
33	1.077	295.4858	1637.82166	-1905.18555	125.75395	1635.53085	-1903.91403	308.2465	1619.34082	-2055.39795	113.48297	1619.72626	-2055.76096	297.76525	1399.86984	-1958.54874	147.8582	1389.34158	-1950.21103	281.84097	1449.21997	-2105.53436	125.61819	1438.96591	-2095.96115	215.44273	1273.93242	-2151.09924	224.20715	1327.92328	-1917.97058	220.34821	1224.68246	-1897.33932	418.72795	1424.50211	-2019.90692	480.06672	1245.3923	-2045.41779	506.45817	1105.31349	-2052.89886	509.18694	967.40234	-2040.31097	435.32574	828.79791	-1946.45676	486.1512	805.86746	-2009.37973	486.39771	776.88484	-1945.40588	20.71859	1418.76999	-2008.82278	-36.01221	1223.67981	-1999.51675	-53.99136	1080.34889	-2008.90259	-56.4369	978.62602	-2005.86395	13.41969	826.64619	-1892.64023	-35.54436	802.09679	-1957.74963	-45.80921	776.12488	-1899.31793	319.95295	984.96178	-1930.19485	84.81151	975.35362	-1948.63373	302.56035	1013.08792	-2128.75336	126.75984	1016.02493	-2127.1286	344.97318	727.47047	-2126.53488	343.61622	521.03703	-2092.70142	312.63878	338.46058	-2089.59946	310.17838	164.25741	-2169.42734	242.80508	86.40391	-2231.69693	276.86619	74.77237	-2034.62219	90.39001	712.85782	-2146.35406	47.88441	511.83052	-2091.74149	83.15275	287.37267	-2092.6915	42.7135	131.37207	-2179.67453	98.22003	77.74501	-2233.51913	58.82668	72.06999	-2033.5228
34	1.11	296.33488	1636.87714	-1901.19064	126.6636	1634.77097	-1900.12177	309.23573	1619.10629	-2051.55563	114.41826	1619.64157	-2052.03735	298.61176	1399.39621	-1955.41306	148.36142	1388.52432	-1947.54074	283.07749	1449.22104	-2102.45148	126.67281	1438.69598	-2093.405	216.95854	1273.88771	-2148.60962	224.77112	1327.23358	-1915.4567	220.99932	1223.89816	-1895.15732	419.68307	1423.98392	-2016.41022	481.09047	1244.96933	-2042.80426	507.60845	1104.9337	-2050.73242	510.09529	966.90201	-2038.66852	434.88735	828.07724	-1945.92911	486.54606	805.31204	-2008.46069	486.36597	776.11938	-1944.63104	21.63705	1418.21732	-2006.62033	-35.37686	1223.21152	-1996.61896	-53.68482	1079.85092	-2005.39154	-56.51387	978.28964	-2002.13165	12.8962	826.259	-1888.68027	-36.33189	801.82938	-1953.5231	-46.46163	775.92484	-1895.10818	320.27393	984.27399	-1928.99429	85.27655	974.77829	-1947.98691	303.34986	1012.61864	-2127.47192	127.56775	1015.2449	-2126.04156	346.83445	726.57066	-2124.19952	343.73238	520.27489	-2088.73215	311.93338	337.19521	-2086.27716	310.0737	163.48883	-2168.09174	242.93718	86.22477	-2231.83685	276.99947	75.3056	-2034.91058	89.3119	711.58997	-2143.82965	47.17627	510.99373	-2087.1347	83.98169	285.80359	-2090.18845	42.21004	130.67938	-2178.2869	97.23506	77.31763	-2233.98148	58.70191	72.18058	-2033.86856
35	1.143	297.3078	1636.43478	-1896.32919	127.54059	1634.22592	-1895.45776	310.47745	1619.00284	-2046.73019	115.63582	1619.30771	-2047.37564	299.88453	1398.94913	-1951.27808	149.75616	1388.07785	-1944.01062	284.45835	1449.12476	-2098.24692	128.14116	1438.45505	-2089.56436	218.4292	1273.87352	-2145.24765	226.01311	1326.68427	-1911.88751	222.30587	1223.08334	-1891.93329	421.08448	1423.62595	-2012.20276	482.52487	1244.62967	-2039.25522	508.84933	1104.49684	-2047.48474	511.19808	966.49063	-2036.28174	435.26237	826.99432	-1944.97528	487.39368	804.70245	-2007.20108	486.59523	775.0267	-1943.50494	22.92131	1417.62161	-2003.24783	-34.52967	1222.7359	-1993.40546	-53.44497	1079.54224	-2001.5094	-56.49994	977.99538	-1997.75696	12.56309	826.33011	-1883.5849	-36.61802	801.74004	-1948.25912	-46.88368	776.13884	-1889.77936	321.21071	983.59177	-1927.44781	86.24026	973.96202	-1946.59424	303.76844	1012.8717	-2125.80856	127.98265	1014.66995	-2124.06525	348.92593	724.94263	-2120.61951	344.58199	519.09897	-2083.04337	312.02553	335.40489	-2082.18826	310.44832	162.83514	-2166.61346	243.23675	86.3612	-2232.13852	276.95496	75.63778	-2035.224	86.9539	710.42885	-2141.44913	46.61326	509.55429	-2082.1228	84.56657	284.44405	-2087.7504	41.31986	130.21661	-2177.41592	96.09492	77.01257	-2234.31168	58.47985	72.36793	-2034.14963
36	1.177	298.54797	1635.99808	-1890.29861	128.77201	1633.44345	-1889.7934	311.93747	1618.42255	-2040.60852	117.10738	1618.52814	-2041.78009	301.65325	1398.5228	-1945.9317	151.20186	1387.0961	-1938.80737	286.04614	1449.10049	-2092.68036	129.83346	1438.38593	-2084.22684	220.01892	1274.13795	-2140.74509	227.75488	1325.47318	-1906.94809	223.87363	1222.13005	-1887.57935	422.68459	1423.21259	-2006.62079	484.04388	1244.2308	-2034.45206	510.11559	1104.05945	-2043.31299	512.31194	965.98251	-2033.00064	436.25088	825.70663	-1942.8508	488.82664	804.48471	-2005.47089	487.59598	773.7484	-1941.96442	24.62716	1417.23984	-1998.02933	-33.56516	1222.81395	-1989.47678	-53.05345	1079.57909	-1996.99768	-56.19501	977.72568	-1992.70248	12.57707	826.85654	-1877.63168	-36.42956	801.90453	-1942.1463	-46.9771	776.5892	-1883.69476	322.61913	982.44606	-1924.60403	87.61885	973.22189	-1943.80096	304.81443	1012.82051	-2122.82974	129.17795	1014.33517	-2120.858	350.54234	723.79616	-2116.75186	345.7061	518.14331	-2077.92221	312.33322	333.77602	-2078.44925	310.94345	162.30024	-2165.26596	243.60922	86.5088	-2232.49344	277.39088	76.06609	-2035.63095	85.4405	709.97314	-2138.74084	47.06321	509.12285	-2077.76657	85.59835	283.51667	-2085.78064	40.98073	130.06412	-2176.60751	95.66483	76.71639	-2234.46899	58.29814	72.63693	-2034.39682
